<svg xmlns="http://www.w3.org/2000/svg" viewBox="0 0 76 40" width="76" height="40" role="img" aria-label="U.S. Flag">
  <rect width="76" height="40" fill="#b22234"></rect>
  <g fill="#ffffff">
    <rect y="3.08" width="76" height="3.08"></rect>
    <rect y="9.23" width="76" height="3.08"></rect>
    <rect y="15.38" width="76" height="3.08"></rect>
    <rect y="21.54" width="76" height="3.08"></rect>
    <rect y="27.69" width="76" height="3.08"></rect>
    <rect y="33.85" width="76" height="3.08"></rect>
  </g>
  <rect width="30.4" height="21.54" fill="#3c3b6e"></rect>
  <g fill="#ffffff" font-family="serif" font-size="3">
    <g>
      <circle cx="2.5" cy="2.5" r="0.8"></circle><circle cx="5.5" cy="2.5" r="0.8"></circle><circle cx="8.5" cy="2.5" r="0.8"></circle><circle cx="11.5" cy="2.5" r="0.8"></circle><circle cx="14.5" cy="2.5" r="0.8"></circle><circle cx="17.5" cy="2.5" r="0.8"></circle>
      <circle cx="4" cy="5" r="0.8"></circle><circle cx="7" cy="5" r="0.8"></circle><circle cx="10" cy="5" r="0.8"></circle><circle cx="13" cy="5" r="0.8"></circle><circle cx="16" cy="5" r="0.8"></circle>
      <circle cx="2.5" cy="7.5" r="0.8"></circle><circle cx="5.5" cy="7.5" r="0.8"></circle><circle cx="8.5" cy="7.5" r="0.8"></circle><circle cx="11.5" cy="7.5" r="0.8"></circle><circle cx="14.5" cy="7.5" r="0.8"></circle><circle cx="17.5" cy="7.5" r="0.8"></circle>
      <circle cx="4" cy="10" r="0.8"></circle><circle cx="7" cy="10" r="0.8"></circle><circle cx="10" cy="10" r="0.8"></circle><circle cx="13" cy="10" r="0.8"></circle><circle cx="16" cy="10" r="0.8"></circle>
      <circle cx="2.5" cy="12.5" r="0.8"></circle><circle cx="5.5" cy="12.5" r="0.8"></circle><circle cx="8.5" cy="12.5" r="0.8"></circle><circle cx="11.5" cy="12.5" r="0.8"></circle><circle cx="14.5" cy="12.5" r="0.8"></circle><circle cx="17.5" cy="12.5" r="0.8"></circle>
      <circle cx="4" cy="15" r="0.8"></circle><circle cx="7" cy="15" r="0.8"></circle><circle cx="10" cy="15" r="0.8"></circle><circle cx="13" cy="15" r="0.8"></circle><circle cx="16" cy="15" r="0.8"></circle>
      <circle cx="2.5" cy="17.5" r="0.8"></circle><circle cx="5.5" cy="17.5" r="0.8"></circle><circle cx="8.5" cy="17.5" r="0.8"></circle><circle cx="11.5" cy="17.5" r="0.8"></circle><circle cx="14.5" cy="17.5" r="0.8"></circle><circle cx="17.5" cy="17.5" r="0.8"></circle>
      <circle cx="4" cy="20" r="0.8"></circle><circle cx="7" cy="20" r="0.8"></circle><circle cx="10" cy="20" r="0.8"></circle><circle cx="13" cy="20" r="0.8"></circle><circle cx="16" cy="20" r="0.8"></circle>
    </g>
  </g>
</svg>